<?xml version="1.0" encoding="utf-8"?><svg viewBox="0 0 213 80" xmlns="http://www.w3.org/2000/svg" xmlns:xlink="http://www.w3.org/1999/xlink"><style>:root>svg{display:none}:root>svg:target{display:block}</style><svg fill="none" viewBox="0 0 80 80" id="adds" xmlns="http://www.w3.org/2000/svg"><g clip-path="url(#aclip0)"><path d="M77.325 23.521l-9.1 2.89M60.093 5.42l-4.39 8.476M73.694 48.248l-8.477-4.39" stroke="#AB8067" stroke-width="4.773" stroke-linecap="round"/><path fill-rule="evenodd" clip-rule="evenodd" d="M43.514 37.724a9.026 9.026 0 10-1.821-5.735L9.983 42.06a3.009 3.009 0 101.822 5.735l31.709-10.07z" fill="#AB8067"/><g filter="url(#afilter0_bd)"><path fill-rule="evenodd" clip-rule="evenodd" d="M32.937 17.701c1.08-1.182 9.434-9.716 10.708-5.705l6.5 20.466 6.498 20.466c1.274 4.01-10.473 1.86-12.038 1.518-2.543-.557-5.441-1.647-7.952-2.59-2.803-1.055-5.121-1.926-5.921-1.672-.175.055-.62.299-1.281.66-1.148.626-1.449 2.155-.604 3.153l9.375 11.08a7.16 7.16 0 11-10.931 9.25L14.388 59.079c-1.439-1.7-3.578-2.56-5.693-3.257-3.045-1.002-5.624-3.376-7.077-7.95C-3.3 32.386 16.88 30.052 22.637 29.387c.748-.087 1.252-.145 1.427-.2.8-.254 2.19-2.304 3.872-4.782 1.506-2.219 3.245-4.781 5-6.704z" fill="#DFC3B5" fill-opacity=".4"/></g></g><defs><clipPath id="aclip0"><path fill="#fff" d="M0 0h80v80H0z"/></clipPath><filter id="afilter0_bd" x="-7.069" y="3.009" width="71.732" height="81.775" filterUnits="userSpaceOnUse" color-interpolation-filters="sRGB"><feFlood flood-opacity="0" result="BackgroundImageFix"/><feGaussianBlur in="BackgroundImage" stdDeviation="3.961"/><feComposite in2="SourceAlpha" operator="in" result="effect1_backgroundBlur"/><feColorMatrix in="SourceAlpha" values="0 0 0 0 0 0 0 0 0 0 0 0 0 0 0 0 0 0 127 0"/><feOffset dy="1.584"/><feGaussianBlur stdDeviation="1.981"/><feColorMatrix values="0 0 0 0 0.521569 0 0 0 0 0.435294 0 0 0 0 0.380392 0 0 0 0.1 0"/><feBlend in2="effect1_backgroundBlur" result="effect2_dropShadow"/><feBlend in="SourceGraphic" in2="effect2_dropShadow" result="shape"/></filter></defs></svg><svg fill="none" viewBox="0 0 80 80" id="anti-crysis" xmlns="http://www.w3.org/2000/svg"><g clip-path="url(#bclip0)"><path fill-rule="evenodd" clip-rule="evenodd" d="M75.934 13.62a.949.949 0 00-.78-.78l-18.226.67c-.617-.079-.832.629-.34 1.12l6.147 4.436-27.963 24.332c-.242.211-.661.148-.954-.145L21.53 36.136c-.349-.347-.855-.361-1.052-.029L.45 60.325c-.356.602.569 1.469 1.125 1.055L21.49 48.953c.247-.184.646-.112.926.168l13.495 10.24c.316.315.771.36 1 .1l32.841-33.378 4.391 6.103c.492.492 1.2.277 1.12-.34l.671-18.226z" fill="#AB8067"/><g filter="url(#bfilter0_bd)"><path fill-rule="evenodd" clip-rule="evenodd" d="M49.182 13.545c-2.076 2.012-1.6 5.522.481 7.527 6.763 6.513 10.882 17.609 13.287 26.872 2.32 9.128-3.843 18.32-13.319 19.306-3.71.394-8.018.657-12.921.657-4.904 0-9.21-.263-12.921-.657-9.41-.985-15.638-10.178-13.253-19.306 2.41-9.225 6.538-20.334 13.322-26.878 2.073-2 2.538-5.493.47-7.499l-1.997-1.936c-2.32-2.233-.729-6.042 2.452-6.042h23.92c3.181 0 4.705 3.875 2.452 6.042l-1.973 1.914z" fill="#DFC3B5" fill-opacity=".4"/></g><path d="M35.99 52.381c0 .474.385.859.86.859h.678a.859.859 0 00.858-.859v-2.07c3.757-.325 6.39-2.484 6.39-5.708s-1.923-5.028-6.42-6.152v-5.62c1.113.237 2.187.682 3.238 1.35.43.274 1.013.161 1.274-.277l.771-1.294a.817.817 0 00-.238-1.109c-1.473-.958-3.131-1.572-5.015-1.805v-.915a.859.859 0 00-.858-.86h-.678a.859.859 0 00-.86.86v.856c-3.696.296-6.3 2.455-6.3 5.65 0 3.371 2.012 4.998 6.33 6.122v5.797c-1.644-.253-3.05-.939-4.478-1.983a.89.89 0 00-1.255.19l-.9 1.278a.82.82 0 00.184 1.148 14.05 14.05 0 006.42 2.443v2.099zm.03-14.55c-2.277-.681-2.84-1.48-2.84-2.692 0-1.36.977-2.367 2.84-2.514v5.205zm2.337 9.493v-5.353c2.307.68 2.928 1.479 2.928 2.78 0 1.48-1.065 2.426-2.928 2.574z" fill="#fff"/></g><defs><clipPath id="bclip0"><path fill="#fff" d="M0 0h80v80H0z"/></clipPath><filter id="bfilter0_bd" x="5.748" y="1.313" width="61.968" height="70.871" filterUnits="userSpaceOnUse" color-interpolation-filters="sRGB"><feFlood flood-opacity="0" result="BackgroundImageFix"/><feGaussianBlur in="BackgroundImage" stdDeviation="2.138"/><feComposite in2="SourceAlpha" operator="in" result="effect1_backgroundBlur"/><feColorMatrix in="SourceAlpha" values="0 0 0 0 0 0 0 0 0 0 0 0 0 0 0 0 0 0 127 0"/><feOffset dy=".855"/><feGaussianBlur stdDeviation="1.069"/><feColorMatrix values="0 0 0 0 0.521569 0 0 0 0 0.435294 0 0 0 0 0.380392 0 0 0 0.1 0"/><feBlend in2="effect1_backgroundBlur" result="effect2_dropShadow"/><feBlend in="SourceGraphic" in2="effect2_dropShadow" result="shape"/></filter></defs></svg><svg fill="none" viewBox="0 0 20 20" id="close" xmlns="http://www.w3.org/2000/svg"><rect x="1.414" y=".092" width="25" height="2" rx="1" transform="rotate(45 1.414 .092)" fill="#fff"/><rect width="25" height="2" rx="1" transform="scale(1 -1) rotate(45 23.753 -7.839)" fill="#fff"/></svg><svg fill="none" viewBox="0 0 80 80" id="customization" xmlns="http://www.w3.org/2000/svg"><g clip-path="url(#dclip0)"><path d="M55.813 24.06a1.537 1.537 0 00-1.622-1.454l-4.978.284a1.537 1.537 0 00-1.448 1.61l.176 3.575c.036.73-.45 1.379-1.146 1.6a20.177 20.177 0 00-4.985 2.371c-.616.407-1.435.378-1.984-.117l-2.733-2.467a1.537 1.537 0 00-2.174.115l-3.354 3.738c-.566.63-.515 1.6.115 2.168l2.8 2.523c.539.486.659 1.279.332 1.926a19.23 19.23 0 00-1.01 2.37c-.278.8-.493 1.61-.657 2.42-.146.72-.743 1.273-1.476 1.311l-3.366.177a1.537 1.537 0 00-1.455 1.615l.263 5.025c.044.85.77 1.502 1.62 1.454l3.366-.188c.727-.04 1.376.436 1.607 1.126a20.586 20.586 0 002.162 4.538c.39.611.353 1.412-.131 1.951l-2.57 2.86a1.537 1.537 0 00.116 2.17l3.71 3.339a1.537 1.537 0 002.17-.116l2.466-2.744c.494-.55 1.307-.665 1.964-.325a20.38 20.38 0 005.191 1.833c.723.149 1.281.748 1.32 1.485l.185 3.533c.045.85.771 1.502 1.621 1.454l4.99-.28a1.537 1.537 0 001.448-1.614l-.189-3.685c-.037-.72.433-1.362 1.114-1.596a20.419 20.419 0 004.346-2.104c.61-.39 1.411-.354 1.95.13l2.608 2.343a1.537 1.537 0 002.171-.117l3.356-3.74a1.537 1.537 0 00-.115-2.169l-2.513-2.262c-.548-.494-.662-1.304-.324-1.96a20.187 20.187 0 001.8-5.05c.153-.711.746-1.256 1.472-1.295l3.78-.204a1.537 1.537 0 001.452-1.613l-.257-5.011a1.537 1.537 0 00-1.616-1.457l-3.78.201c-.73.039-1.38-.444-1.606-1.139a20.276 20.276 0 00-2.312-4.813c-.4-.614-.37-1.426.12-1.97l2.285-2.543c.567-.63.517-1.6-.112-2.168l-3.708-3.349a1.537 1.537 0 00-2.174.114l-2.32 2.584c-.486.541-1.281.662-1.93.333a19.078 19.078 0 00-2.364-1.007 18.572 18.572 0 00-2.184-.605c-.711-.153-1.255-.747-1.293-1.473l-.19-3.64zm1.012 13.37c6.367 2.21 9.657 9.06 7.443 15.441-2.219 6.397-9.04 9.723-15.407 7.514C42.51 58.18 39.2 51.34 41.42 44.944c2.214-6.381 9.054-9.717 15.406-7.513z" fill="#AB8067"/><g filter="url(#dfilter0_bd)"><path fill-rule="evenodd" clip-rule="evenodd" d="M22.993 3.504c.875-.36 1.876.06 2.233.936l1.816 4.467c.304.748 1.09 1.175 1.892 1.071a22.98 22.98 0 012.933-.196c1.128 0 2.227.087 3.304.239.8.113 1.591-.305 1.904-1.05l1.785-4.249a1.708 1.708 0 012.24-.911l6.003 2.542a1.708 1.708 0 01.908 2.235l-1.761 4.187c-.316.75-.054 1.615.594 2.109a24.96 24.96 0 014.84 4.877c.488.65 1.347.92 2.099.613l4.624-1.884a1.708 1.708 0 012.227.94l2.458 6.065a1.708 1.708 0 01-.936 2.223l-4.621 1.888c-.749.305-1.174 1.093-1.07 1.895a24.863 24.863 0 01-.06 6.898c-.121.81.295 1.62 1.05 1.938l4.144 1.748a1.708 1.708 0 01.911 2.235l-2.536 6.043a1.708 1.708 0 01-2.236.913l-4.285-1.801c-.742-.312-1.597-.06-2.093.576a25.134 25.134 0 01-4.413 4.408c-.633.49-.891 1.337-.59 2.078l1.831 4.516a1.708 1.708 0 01-.933 2.222l-6.03 2.479a1.708 1.708 0 01-2.231-.936l-1.768-4.346c-.309-.76-1.114-1.186-1.926-1.074-1.116.155-2.26.232-3.433.232a24.33 24.33 0 01-3.646-.27c-.812-.124-1.624.293-1.942 1.05l-1.89 4.498a1.708 1.708 0 01-2.238.912l-6-2.529a1.708 1.708 0 01-.912-2.236l1.963-4.67c.312-.742.06-1.597-.575-2.093a25.343 25.343 0 01-4.554-4.616c-.49-.643-1.345-.906-2.093-.599l-4.148 1.704a1.708 1.708 0 01-2.23-.937L1.13 43.765a1.708 1.708 0 01.938-2.225l4.154-1.69c.756-.308 1.182-1.106 1.068-1.913a23.156 23.156 0 01-.233-3.23c0-1.124.087-2.227.239-3.311.112-.798-.304-1.587-1.046-1.9L1.669 27.56a1.708 1.708 0 01-.91-2.234l2.534-6.04a1.708 1.708 0 012.24-.912l4.486 1.897c.755.32 1.627.052 2.121-.602a24.84 24.84 0 015.054-4.98c.653-.482.926-1.34.622-2.094L16.045 8.2c-.35-.87.066-1.86.933-2.218l6.015-2.478z" fill="#DFC3B5" fill-opacity=".4"/></g></g><defs><clipPath id="dclip0"><path fill="#fff" d="M0 0h80v80H0z"/></clipPath><filter id="dfilter0_bd" x="-4.354" y="-1.604" width="72.552" height="72.538" filterUnits="userSpaceOnUse" color-interpolation-filters="sRGB"><feFlood flood-opacity="0" result="BackgroundImageFix"/><feGaussianBlur in="BackgroundImage" stdDeviation="2.49"/><feComposite in2="SourceAlpha" operator="in" result="effect1_backgroundBlur"/><feColorMatrix in="SourceAlpha" values="0 0 0 0 0 0 0 0 0 0 0 0 0 0 0 0 0 0 127 0"/><feOffset dy=".996"/><feGaussianBlur stdDeviation="1.245"/><feColorMatrix values="0 0 0 0 0.521569 0 0 0 0 0.435294 0 0 0 0 0.380392 0 0 0 0.1 0"/><feBlend in2="effect1_backgroundBlur" result="effect2_dropShadow"/><feBlend in="SourceGraphic" in2="effect2_dropShadow" result="shape"/></filter></defs></svg><svg fill="none" viewBox="0 0 45 44" id="fb" xmlns="http://www.w3.org/2000/svg"><path fill-rule="evenodd" clip-rule="evenodd" d="M24.832 11c-3.184 0-5.164 2.131-5.164 5.56v2.374H16.5v4.79h3.168v9.887h4.682v-9.886h3.105l.59-4.79H24.35v-1.993c0-.974.2-1.406 1.373-1.406h2.388v-4.33l-.39-.051A25.13 25.13 0 0024.833 11z" fill="#120D08"/></svg><svg fill="none" viewBox="0 0 45 44" id="ig" xmlns="http://www.w3.org/2000/svg"><mask id="fa" maskUnits="userSpaceOnUse" x="8" y="8" width="28" height="28"><path fill-rule="evenodd" clip-rule="evenodd" d="M8.993 8.998h26.062v26.059H8.993V8.998z" fill="#fff"/></mask><g mask="url(#fa)"><path fill-rule="evenodd" clip-rule="evenodd" d="M22.024 8.998c-3.54 0-3.983.015-5.373.078-1.387.064-2.334.284-3.163.606a6.387 6.387 0 00-2.308 1.503 6.387 6.387 0 00-1.503 2.308c-.322.83-.543 1.776-.606 3.163-.063 1.39-.078 1.834-.078 5.373 0 3.54.015 3.983.078 5.373.063 1.387.284 2.334.606 3.163a6.388 6.388 0 001.503 2.308 6.388 6.388 0 002.308 1.503c.829.322 1.776.542 3.163.606 1.39.063 1.834.078 5.373.078s3.982-.015 5.372-.078c1.387-.064 2.335-.284 3.164-.606a6.388 6.388 0 002.308-1.503 6.388 6.388 0 001.503-2.308c.322-.829.542-1.776.605-3.163.064-1.39.079-1.834.079-5.373s-.015-3.983-.079-5.373c-.063-1.387-.283-2.334-.605-3.163a6.388 6.388 0 00-1.503-2.308 6.387 6.387 0 00-2.308-1.503c-.83-.322-1.777-.542-3.164-.606-1.39-.063-1.833-.078-5.372-.078zm0 2.348c3.48 0 3.891.013 5.265.076 1.27.058 1.96.27 2.42.449a4.038 4.038 0 011.498.974c.456.456.739.89.975 1.499.179.459.39 1.149.449 2.42.063 1.373.076 1.786.076 5.265 0 3.48-.013 3.892-.076 5.266-.058 1.27-.27 1.96-.449 2.42a4.036 4.036 0 01-.975 1.498c-.456.456-.89.738-1.498.974-.46.179-1.15.391-2.42.45-1.373.062-1.786.075-5.265.075-3.48 0-3.892-.013-5.266-.076-1.27-.058-1.96-.27-2.42-.449a4.038 4.038 0 01-1.498-.974 4.036 4.036 0 01-.975-1.499c-.178-.459-.39-1.149-.448-2.42-.063-1.373-.076-1.785-.076-5.265 0-3.48.013-3.892.076-5.266.058-1.27.27-1.96.448-2.42a4.038 4.038 0 01.975-1.498c.456-.456.89-.738 1.498-.974.46-.179 1.15-.391 2.42-.449 1.374-.063 1.786-.076 5.266-.076z" fill="#120D08"/></g><path fill-rule="evenodd" clip-rule="evenodd" d="M22.028 26.402a4.377 4.377 0 110-8.753 4.377 4.377 0 010 8.753zm0-11.12a6.742 6.742 0 100 13.485 6.742 6.742 0 000-13.484zM31.467 15.283a1.798 1.798 0 11-3.596 0 1.798 1.798 0 013.596 0z" fill="#120D08"/></svg><svg fill="none" viewBox="0 0 213 40" id="logo" xmlns="http://www.w3.org/2000/svg"><path d="M30.356 19.77l4.592-4.592-2.864-2.864-4.873 2.958 3.145 4.498z" fill="#CBA75C"/><path d="M30.356 19.77l-3.993-3.993-6.593 3.993 5.293 5.293 4.592 4.593 5.293-5.293-4.592-4.593z" fill="#99703F"/><path d="M27.211 15.271l4.873-2.957-2.429-2.429-3.65 3.65 1.206 1.736z" fill="#B1893F"/><path d="M25.063 14.477L19.77 19.77l6.593-3.993-1.3-1.3z" fill="#845A2D"/><path d="M26.363 15.777l3.993 3.993-3.145-4.499-.848.506z" fill="#AF8133"/><path d="M27.211 15.271l-1.206-1.735-.942.941 1.3 1.3.848-.506z" fill="#87672B"/><path d="M19.77 30.356l4.593 4.592 2.864-2.864-2.958-4.873-4.499 3.145z" fill="#6B4C2E"/><path d="M19.77 19.77l-5.293 5.293-4.592 4.592 5.293 5.293 4.592-4.592 3.993-3.993-3.993-6.593z" fill="#CBA75C"/><path d="M24.27 27.211l2.957 4.873 2.428-2.429-3.65-3.65-1.736 1.206z" fill="#573B23"/><path d="M25.063 25.063L19.77 19.77l3.993 6.593 1.3-1.3z" fill="#B08A3E"/><path d="M23.763 26.363l-3.993 3.993 4.5-3.144-.507-.849z" fill="#53381E"/><path d="M24.27 27.211l1.735-1.206-.942-.942-1.3 1.3.506.848z" fill="#462C14"/><path d="M9.185 19.77l-4.593 4.592 2.865 2.865 4.872-2.958-3.144-4.499z" fill="#F8D885"/><path d="M14.477 14.478L9.885 9.885l-5.293 5.293 4.593 4.592 3.993 3.993 6.592-3.993-5.293-5.292z" fill="#6B4C2E"/><path d="M12.33 24.27l-4.873 2.957 2.428 2.429 3.65-3.65-1.206-1.737z" fill="#E1B759"/><path d="M14.477 25.063l5.293-5.293-6.592 3.993 1.3 1.3z" fill="#573B23"/><path d="M13.178 23.763L9.185 19.77l3.144 4.499.849-.506z" fill="#CB9B3D"/><path d="M12.33 24.269l1.206 1.736.941-.942-1.3-1.3-.848.506z" fill="#AE8234"/><path d="M19.77 9.185l-4.592-4.593-2.864 2.865 2.957 4.872 4.5-3.144z" fill="#99703F"/><path d="M24.363 4.592L19.77 9.185l-3.993 3.993 3.993 6.592 5.293-5.293 4.592-4.592-5.292-5.293z" fill="#F8D885"/><path d="M15.271 12.33l-2.957-4.873-2.429 2.428 3.65 3.65 1.736-1.206z" fill="#8B6032"/><path d="M14.477 14.478l5.293 5.292-3.993-6.592-1.3 1.3z" fill="#E1B759"/><path d="M15.777 13.178l3.993-3.994-4.499 3.145.506.848z" fill="#845A2D"/><path d="M15.271 12.33l-1.735 1.206.941.941 1.3-1.3-.506-.848z" fill="#6E4E2A"/><path d="M66.785 11.14h3.06l6.775 17.812h-3.563l-1.656-4.44H65.18l-1.63 4.44h-3.563l6.799-17.813zm3.989 10.938l-2.459-7-2.559 7h5.018zM79.903 28.952V11.139h7.552c.82 0 1.572.176 2.258.527a5.58 5.58 0 011.806 1.355 6.19 6.19 0 011.18 1.906c.283.703.426 1.414.426 2.133 0 .753-.134 1.489-.402 2.208a6.131 6.131 0 01-1.129 1.881 5.547 5.547 0 01-1.756 1.33 5.08 5.08 0 01-2.258.502h-4.215v5.97h-3.462zm3.462-9.007h4.014c.636 0 1.163-.259 1.58-.777.436-.519.653-1.221.653-2.108 0-.452-.067-.853-.2-1.204a2.927 2.927 0 00-.527-.928 1.952 1.952 0 00-.778-.552 2.04 2.04 0 00-.878-.201h-3.864v5.77zM100.299 18.465h1.405l5.419-7.326h3.914l-6.397 8.605 6.974 9.208h-3.863l-5.721-7.376h-1.731v7.376h-3.437V11.139h3.437v7.326zM126.876 25.916v3.036h-12.369V11.139h12.143v3.036h-8.68v4.29h7.501v2.81h-7.501v4.641h8.906zM144.15 14.175h-5.695v14.777h-3.437V14.175h-5.696v-3.036h14.828v3.036zM178.387 14.175h-5.695v14.777h-3.438V14.175h-5.695v-3.036h14.828v3.036zM194.296 25.916v3.036h-12.368V11.139h12.142v3.036h-8.68v4.29h7.501v2.81h-7.501v4.641h8.906zM198.323 11.14H213v17.812h-3.437V14.175h-7.803v14.777h-3.437V11.139zM41.967 11.14h14.676v17.812h-3.437V14.175h-7.802v14.777h-3.438V11.14zM145.704 19.92c0-1.087.192-2.157.577-3.211a8.898 8.898 0 011.731-2.86c.752-.836 1.672-1.514 2.759-2.032 1.088-.519 2.325-.778 3.714-.778 1.639 0 3.052.36 4.239 1.079 1.205.72 2.1 1.656 2.685 2.81l-2.659 1.831a4.387 4.387 0 00-.853-1.254 4.156 4.156 0 00-1.079-.828 4.502 4.502 0 00-1.204-.427c-.419-.1-.828-.15-1.23-.15-.87 0-1.631.175-2.283.527a5.116 5.116 0 00-1.606 1.38 6.015 6.015 0 00-.953 1.906 7.024 7.024 0 00.05 4.39c.251.72.602 1.355 1.054 1.907.468.552 1.02.996 1.656 1.33a4.603 4.603 0 002.132.502c.402 0 .82-.05 1.255-.15.435-.1.844-.26 1.229-.477.402-.218.77-.494 1.104-.828a4.03 4.03 0 00.803-1.255l2.835 1.631a5.399 5.399 0 01-1.229 1.781 7.684 7.684 0 01-1.782 1.28 8.864 8.864 0 01-2.107.803 9.289 9.289 0 01-2.208.276c-1.271 0-2.434-.268-3.487-.803a9.336 9.336 0 01-2.735-2.082 10.288 10.288 0 01-1.781-2.936 9.425 9.425 0 01-.627-3.362z" fill="#120D08"/></svg><svg fill="none" viewBox="0 0 80 80" id="payback" xmlns="http://www.w3.org/2000/svg"><path d="M75 60.218c0-3.437-5.638-6.224-12.593-6.224-6.954 0-12.592 2.787-12.592 6.224v4.891c0 3.438 5.638 6.224 12.592 6.224C69.362 71.333 75 68.547 75 65.11v-4.89z" fill="#AB8067"/><path d="M62.407 66.443c6.955 0 12.593-2.787 12.593-6.225 0-3.437-5.638-6.224-12.593-6.224-6.954 0-12.592 2.787-12.592 6.224 0 3.438 5.638 6.225 12.592 6.225z" fill="#ECDFD9"/><path d="M75 52.373c0-3.438-5.638-6.225-12.593-6.225-6.954 0-12.592 2.787-12.592 6.224v4.891c0 3.438 5.638 6.224 12.592 6.224 6.955 0 12.593-2.786 12.593-6.224v-4.89z" fill="#AB8067"/><path d="M62.407 58.597C69.362 58.597 75 55.81 75 52.373c0-3.438-5.638-6.225-12.593-6.225-6.954 0-12.592 2.787-12.592 6.224 0 3.438 5.638 6.225 12.592 6.225z" fill="#ECDFD9"/><path d="M75 44.224C75 40.787 69.362 38 62.407 38c-6.954 0-12.592 2.787-12.592 6.224v4.891c0 3.438 5.638 6.224 12.592 6.224C69.362 55.34 75 52.553 75 49.115v-4.89z" fill="#AB8067"/><path d="M62.407 50.449c6.955 0 12.593-2.787 12.593-6.225C75 40.787 69.362 38 62.407 38c-6.954 0-12.592 2.787-12.592 6.224 0 3.438 5.638 6.225 12.592 6.225z" fill="#ECDFD9"/><path d="M60.185 66.885c0-3.438-5.638-6.224-12.592-6.224C40.638 60.66 35 63.447 35 66.885v4.89C35 75.214 40.638 78 47.593 78c6.954 0 12.592-2.787 12.592-6.224v-4.89z" fill="#AB8067"/><path d="M47.593 73.11c6.954 0 12.592-2.787 12.592-6.225 0-3.438-5.638-6.224-12.592-6.224C40.638 60.66 35 63.447 35 66.885s5.638 6.224 12.593 6.224z" fill="#ECDFD9"/><path d="M60.185 59.04c0-3.438-5.638-6.225-12.592-6.225-6.955 0-12.593 2.787-12.593 6.224v4.89c0 3.438 5.638 6.225 12.593 6.225 6.954 0 12.592-2.787 12.592-6.224v-4.89z" fill="#AB8067"/><path d="M47.593 65.264c6.954 0 12.592-2.787 12.592-6.225 0-3.437-5.638-6.224-12.592-6.224-6.955 0-12.593 2.787-12.593 6.224 0 3.438 5.638 6.225 12.593 6.225z" fill="#ECDFD9"/><g filter="url(#hfilter0_bd)"><circle cx="35.5" cy="33.5" r="30.5" fill="#DFC3B5" fill-opacity=".4"/></g><path d="M36.694 16.381V38.36h-12.82" stroke="#fff" stroke-width="5.382" stroke-linecap="round" stroke-linejoin="round"/><defs><filter id="hfilter0_bd" x="-.956" y="-2.956" width="72.911" height="72.911" filterUnits="userSpaceOnUse" color-interpolation-filters="sRGB"><feFlood flood-opacity="0" result="BackgroundImageFix"/><feGaussianBlur in="BackgroundImage" stdDeviation="2.978"/><feComposite in2="SourceAlpha" operator="in" result="effect1_backgroundBlur"/><feColorMatrix in="SourceAlpha" values="0 0 0 0 0 0 0 0 0 0 0 0 0 0 0 0 0 0 127 0"/><feOffset dy="1.191"/><feGaussianBlur stdDeviation="1.489"/><feColorMatrix values="0 0 0 0 0.521569 0 0 0 0 0.435294 0 0 0 0 0.380392 0 0 0 0.1 0"/><feBlend in2="effect1_backgroundBlur" result="effect2_dropShadow"/><feBlend in="SourceGraphic" in2="effect2_dropShadow" result="shape"/></filter></defs></svg><svg fill="none" viewBox="0 0 80 80" id="service" xmlns="http://www.w3.org/2000/svg"><g clip-path="url(#iclip0)"><path fill-rule="evenodd" clip-rule="evenodd" d="M11.337 14.613a1.456 1.456 0 01.109-1.938l1.59-1.59a1.456 1.456 0 011.938-.11l6.994 5.581c.498.397.852.947 1.007 1.565l.589 2.337 17.109 16.64c1.76-2.188 4.357-4.377 6.276-2.67 1.566 1.392 1.676 2.563 1.785 3.715.105 1.12.209 2.221 1.646 3.49 1.792 1.58 3.13 1.673 4.215 1.747.68.046 1.26.086 1.79.483.917.688 9.559 9.404 15.846 15.789a4.843 4.843 0 01-.03 6.824l-5.04 5.04a4.843 4.843 0 01-6.825.031c-6.385-6.288-15.1-14.93-15.788-15.847-.397-.529-.437-1.11-.484-1.79-.074-1.084-.166-2.422-1.746-4.214-1.269-1.438-2.37-1.541-3.49-1.647-1.153-.108-2.324-.218-3.716-1.784-1.614-1.816.258-4.238 2.317-5.984l-16.61-17.079-2.337-.588a2.911 2.911 0 01-1.565-1.008l-5.58-6.994z" fill="#AB8067"/><g filter="url(#ifilter0_bd)"><path fill-rule="evenodd" clip-rule="evenodd" d="M28.407 71.063c3.622-3.621 4.9-8.699 3.835-13.348-.218-.955-.004-1.979.689-2.671L55.044 32.93c.692-.692 1.716-.907 2.67-.689 4.65 1.065 9.727-.213 13.349-3.834 3-3 4.391-6.998 4.176-10.925-.103-1.874-2.324-2.424-3.651-1.096l-.071.071a4.279 4.279 0 01-6.05 0l-2.724-2.723a4.278 4.278 0 010-6.05l.072-.071c1.327-1.328.777-3.549-1.097-3.652A14.296 14.296 0 0050.794 8.14c-3.621 3.621-4.9 8.698-3.835 13.348.219.954.004 1.978-.688 2.67L24.158 46.272c-.693.692-1.717.907-2.672.688-4.649-1.065-9.726.214-13.347 3.835a14.3 14.3 0 00-4.155 11.25c.134 1.721 2.178 2.222 3.398 1.002a4.278 4.278 0 016.05 0l2.723 2.723a4.278 4.278 0 010 6.05c-1.22 1.22-.719 3.265 1.002 3.399a14.3 14.3 0 0011.25-4.155z" fill="#DFC3B5" fill-opacity=".4"/></g></g><defs><clipPath id="iclip0"><path fill="#fff" d="M0 0h80v80H0z"/></clipPath><filter id="ifilter0_bd" x="1.393" y="1.393" width="76.416" height="76.416" filterUnits="userSpaceOnUse" color-interpolation-filters="sRGB"><feFlood flood-opacity="0" result="BackgroundImageFix"/><feGaussianBlur in="BackgroundImage" stdDeviation="1.274"/><feComposite in2="SourceAlpha" operator="in" result="effect1_backgroundBlur"/><feColorMatrix in="SourceAlpha" values="0 0 0 0 0 0 0 0 0 0 0 0 0 0 0 0 0 0 127 0"/><feOffset dy=".51"/><feGaussianBlur stdDeviation=".637"/><feColorMatrix values="0 0 0 0 0.521569 0 0 0 0 0.435294 0 0 0 0 0.380392 0 0 0 0.1 0"/><feBlend in2="effect1_backgroundBlur" result="effect2_dropShadow"/><feBlend in="SourceGraphic" in2="effect2_dropShadow" result="shape"/></filter></defs></svg><svg fill="none" viewBox="0 0 80 80" id="stuff" xmlns="http://www.w3.org/2000/svg"><path d="M44.14 50.395c0 8.854-9.21 10.202-20.57 10.202S3 59.249 3 50.395s9.21-17.697 20.57-17.697 20.57 8.843 20.57 17.697z" fill="#AB8067"/><ellipse cx="23.57" cy="19.694" rx="10.167" ry="9.694" fill="#AB8067"/><g filter="url(#jfilter0_bd)"><path d="M76.767 59.415C76.767 69.469 66.182 71 53.124 71s-23.643-1.53-23.643-11.585c0-10.055 10.585-20.097 23.643-20.097S76.767 49.36 76.767 59.415z" fill="#DFC3B5" fill-opacity=".4"/></g><g filter="url(#jfilter1_bd)"><circle cx="53.124" cy="24.186" r="11.349" fill="#DFC3B5" fill-opacity=".4"/></g><defs><filter id="jfilter0_bd" x="26.802" y="36.639" width="52.645" height="37.04" filterUnits="userSpaceOnUse" color-interpolation-filters="sRGB"><feFlood flood-opacity="0" result="BackgroundImageFix"/><feGaussianBlur in="BackgroundImage" stdDeviation="1.339"/><feComposite in2="SourceAlpha" operator="in" result="effect1_backgroundBlur"/><feColorMatrix in="SourceAlpha" values="0 0 0 0 0 0 0 0 0 0 0 0 0 0 0 0 0 0 127 0"/><feOffset dy=".536"/><feGaussianBlur stdDeviation=".67"/><feColorMatrix values="0 0 0 0 0.521569 0 0 0 0 0.435294 0 0 0 0 0.380392 0 0 0 0.1 0"/><feBlend in2="effect1_backgroundBlur" result="effect2_dropShadow"/><feBlend in="SourceGraphic" in2="effect2_dropShadow" result="shape"/></filter><filter id="jfilter1_bd" x="39.096" y="10.158" width="28.055" height="28.055" filterUnits="userSpaceOnUse" color-interpolation-filters="sRGB"><feFlood flood-opacity="0" result="BackgroundImageFix"/><feGaussianBlur in="BackgroundImage" stdDeviation="1.339"/><feComposite in2="SourceAlpha" operator="in" result="effect1_backgroundBlur"/><feColorMatrix in="SourceAlpha" values="0 0 0 0 0 0 0 0 0 0 0 0 0 0 0 0 0 0 127 0"/><feOffset dy=".536"/><feGaussianBlur stdDeviation=".67"/><feColorMatrix values="0 0 0 0 0.521569 0 0 0 0 0.435294 0 0 0 0 0.380392 0 0 0 0.1 0"/><feBlend in2="effect1_backgroundBlur" result="effect2_dropShadow"/><feBlend in="SourceGraphic" in2="effect2_dropShadow" result="shape"/></filter></defs></svg><svg fill="none" viewBox="0 0 80 80" id="support" xmlns="http://www.w3.org/2000/svg"><path d="M41 24.041c0 11.293 5.995 16.042 18.333 16.042H64.7c1.938 1.266 7.049.922 7.75.703.744-.232-3.725-1.939-2.235-2.636 4.999-2.338 7.453-6.884 7.453-14.109C77.667 12.75 71.67 8 59.333 8S41 12.75 41 24.041z" fill="#AB8067"/><g filter="url(#kfilter0_bd)"><path d="M62 44.25c0 18.478-9.81 26.249-30 26.249h-7.758c-.666 0-1.311.213-1.927.47-3.624 1.509-10.726 1.01-11.778.681-1.217-.379 6.097-3.173 3.658-4.314C6.015 63.511 2 56.071 2 44.25 2 25.771 11.81 18 32 18c20.19 0 30 7.771 30 26.25z" fill="#DFC3B5" fill-opacity=".4"/></g><circle cx="18.5" cy="43" r="3" fill="#fff"/><circle cx="31.5" cy="43" r="3" fill="#fff"/><circle cx="44.5" cy="43" r="3" fill="#fff"/><defs><filter id="kfilter0_bd" x="-1.431" y="14.569" width="66.863" height="60.863" filterUnits="userSpaceOnUse" color-interpolation-filters="sRGB"><feFlood flood-opacity="0" result="BackgroundImageFix"/><feGaussianBlur in="BackgroundImage" stdDeviation="1.716"/><feComposite in2="SourceAlpha" operator="in" result="effect1_backgroundBlur"/><feColorMatrix in="SourceAlpha" values="0 0 0 0 0 0 0 0 0 0 0 0 0 0 0 0 0 0 127 0"/><feOffset dy=".686"/><feGaussianBlur stdDeviation=".858"/><feColorMatrix values="0 0 0 0 0.521569 0 0 0 0 0.435294 0 0 0 0 0.380392 0 0 0 0.1 0"/><feBlend in2="effect1_backgroundBlur" result="effect2_dropShadow"/><feBlend in="SourceGraphic" in2="effect2_dropShadow" result="shape"/></filter></defs></svg><svg fill="none" viewBox="0 0 45 44" id="vk" xmlns="http://www.w3.org/2000/svg"><path fill-rule="evenodd" clip-rule="evenodd" d="M20.322 31.073h1.666s.499-.059.754-.333c.235-.255.225-.735.225-.735s-.03-2.233 1-2.556c1.018-.324 2.33 2.155 3.721 3.105 1.048.725 1.852.568 1.852.568l3.712-.05s1.94-.117 1.019-1.645c-.079-.127-.54-1.126-2.763-3.193-2.33-2.165-2.017-1.812.794-5.554 1.704-2.282 2.39-3.663 2.174-4.26-.205-.569-1.46-.422-1.46-.422l-4.182.03s-.313-.04-.538.097c-.226.137-.373.451-.373.451s-.666 1.763-1.547 3.262c-1.861 3.164-2.606 3.33-2.91 3.134-.705-.46-.528-1.841-.528-2.82 0-3.067.46-4.34-.902-4.673-.45-.108-.793-.186-1.949-.196-1.489-.02-2.752 0-3.467.353-.48.235-.843.754-.617.783.274.04.9.167 1.234.617.43.588.411 1.89.411 1.89s.245 3.606-.578 4.056c-.568.304-1.342-.323-2.997-3.193-.852-1.47-1.489-3.096-1.489-3.096s-.127-.303-.343-.47c-.264-.195-.646-.254-.646-.254l-3.967.03s-.598.019-.813.273c-.196.235-.02.706-.02.706s3.115 7.277 6.632 10.95c3.232 3.37 6.895 3.145 6.895 3.145z" fill="#120D08"/></svg></svg>