<svg width="80" height="80" viewBox="0 0 80 80" fill="none" xmlns="http://www.w3.org/2000/svg">
<g clip-path="url(#clip0)">
<path d="M77.3245 23.5215L68.2258 26.4109" stroke="#AB8067" stroke-width="4.77323" stroke-linecap="round"/>
<path d="M60.0931 5.41968L55.7024 13.8965" stroke="#AB8067" stroke-width="4.77323" stroke-linecap="round"/>
<path d="M73.6936 48.2484L65.2167 43.8578" stroke="#AB8067" stroke-width="4.77323" stroke-linecap="round"/>
<path fill-rule="evenodd" clip-rule="evenodd" d="M43.5139 37.7245C45.7559 40.6909 49.7027 42.0727 53.4484 40.8833C58.1996 39.3745 60.828 34.2998 59.3193 29.5486C57.8105 24.7974 52.7358 22.1689 47.9846 23.6777C44.2389 24.8672 41.8124 28.273 41.6926 31.9893L9.98374 42.0589C8.39995 42.5618 7.52384 44.2533 8.02679 45.8371C8.52974 47.4209 10.2212 48.297 11.805 47.794L43.5139 37.7245Z" fill="#AB8067"/>
<g filter="url(#filter0_bd)">
<path fill-rule="evenodd" clip-rule="evenodd" d="M32.9366 17.7012C34.0164 16.5186 42.3715 7.98541 43.6451 11.9959L50.1443 32.4618L56.6435 52.9278C57.9171 56.9382 46.1696 54.7888 44.6053 54.4459C42.062 53.8885 39.1635 52.7988 36.6531 51.8551C33.8503 50.8015 31.5315 49.9298 30.7315 50.1838C30.5571 50.2392 30.1114 50.4826 29.4507 50.8434C28.3034 51.47 28.0022 52.9994 28.8466 53.9974L38.2219 65.0767C40.7762 68.0953 40.3998 72.613 37.3812 75.1673C34.3627 77.7216 29.8449 77.3452 27.2906 74.3266L14.3878 59.0786C12.9492 57.3785 10.8101 56.5184 8.69461 55.8221C5.64992 54.8199 3.07061 52.4464 1.61794 47.8719C-3.29968 32.3864 16.88 30.0528 22.6368 29.387C23.3847 29.3005 23.8893 29.2422 24.0637 29.1868C24.8636 28.9328 26.2547 26.883 27.9361 24.4053C29.4421 22.1862 31.1809 19.6239 32.9366 17.7012Z" fill="#DFC3B5" fill-opacity="0.4"/>
</g>
</g>
<defs>
<filter id="filter0_bd" x="-7.0694" y="3.00945" width="71.7316" height="81.7746" filterUnits="userSpaceOnUse" color-interpolation-filters="sRGB">
<feFlood flood-opacity="0" result="BackgroundImageFix"/>
<feGaussianBlur in="BackgroundImage" stdDeviation="3.96119"/>
<feComposite in2="SourceAlpha" operator="in" result="effect1_backgroundBlur"/>
<feColorMatrix in="SourceAlpha" type="matrix" values="0 0 0 0 0 0 0 0 0 0 0 0 0 0 0 0 0 0 127 0"/>
<feOffset dy="1.58447"/>
<feGaussianBlur stdDeviation="1.98059"/>
<feColorMatrix type="matrix" values="0 0 0 0 0.521569 0 0 0 0 0.435294 0 0 0 0 0.380392 0 0 0 0.1 0"/>
<feBlend mode="normal" in2="effect1_backgroundBlur" result="effect2_dropShadow"/>
<feBlend mode="normal" in="SourceGraphic" in2="effect2_dropShadow" result="shape"/>
</filter>
<clipPath id="clip0">
<rect width="80" height="80" fill="white"/>
</clipPath>
</defs>
</svg>
