<svg width="80" height="80" viewBox="0 0 80 80" fill="none" xmlns="http://www.w3.org/2000/svg">
<g clip-path="url(#clip0)">
<path fill-rule="evenodd" clip-rule="evenodd" d="M75.9343 13.6198C75.8857 13.2374 75.5364 12.8881 75.1539 12.8394L56.9283 13.5098C56.3109 13.4313 56.0963 14.1385 56.5882 14.6304L62.7353 19.0664L34.7721 43.3984C34.5299 43.6092 34.111 43.5456 33.8176 43.2534L21.5308 36.1356C21.1824 35.7886 20.6755 35.775 20.4793 36.1072L0.4488 60.3255C0.093447 60.9275 1.01789 61.7937 1.57403 61.3799L21.4898 48.953C21.7372 48.769 22.1355 48.841 22.4163 49.1206L35.9106 59.3608C36.2268 59.6757 36.6825 59.7212 36.9104 59.4608L69.7521 26.0832L74.1433 32.1856C74.6352 32.6775 75.3424 32.4628 75.2639 31.8454L75.9343 13.6198Z" fill="#AB8067"/>
<g filter="url(#filter0_bd)">
<path fill-rule="evenodd" clip-rule="evenodd" d="M49.1816 13.5446C47.1065 15.5567 47.5815 19.0669 49.6634 21.072C56.426 27.585 60.5449 38.6807 62.9501 47.9441C65.2693 57.0717 59.1068 66.2649 49.6312 67.2499C45.9205 67.6439 41.6134 67.9066 36.7099 67.9066C31.8065 67.9066 27.4994 67.6439 23.7886 67.2499C14.3793 66.2649 8.15057 57.0717 10.536 47.9441C12.9454 38.7189 17.0744 27.6103 23.8579 21.0664C25.9313 19.0662 26.3959 15.5725 24.3277 13.567L22.3309 11.6307C20.0117 9.39804 21.602 5.58942 24.7826 5.58942H48.7035C51.8842 5.58942 53.4082 9.46371 51.1553 11.6307L49.1816 13.5446Z" fill="#DFC3B5" fill-opacity="0.4"/>
</g>
<path d="M35.9907 52.381C35.9907 52.8554 36.3753 53.24 36.8497 53.24H37.5276C38.002 53.24 38.3865 52.8554 38.3865 52.381V50.3118C42.1428 49.9865 44.7752 47.8273 44.7752 44.6034C44.7752 41.3795 42.8527 39.5752 38.3569 38.4513V32.8316C39.4688 33.0682 40.5428 33.5128 41.5941 34.1808C42.0249 34.4545 42.6072 34.3423 42.8684 33.9038L43.6394 32.6096C43.8646 32.2316 43.7695 31.7413 43.4006 31.5013C41.9281 30.5433 40.2698 29.9286 38.3865 29.6964V28.7807C38.3865 28.3063 38.002 27.9218 37.5276 27.9218H36.8497C36.3753 27.9218 35.9907 28.3063 35.9907 28.7807V29.6372C32.2936 29.933 29.6908 32.0922 29.6908 35.2865C29.6908 38.6583 31.702 40.2851 36.0203 41.409V47.2062C34.3758 46.9532 32.9693 46.2673 31.5417 45.2227C31.1409 44.9294 30.5725 45.0069 30.2868 45.4131L29.3879 46.6912C29.1262 47.0634 29.1985 47.5775 29.571 47.8388C31.4561 49.1607 33.6879 50.0175 35.9907 50.2822V52.381ZM36.0203 37.8302C33.7429 37.1499 33.1809 36.3513 33.1809 35.1386C33.1809 33.7781 34.1569 32.7724 36.0203 32.6246V37.8302ZM38.3569 47.3245V41.971C40.664 42.6513 41.2851 43.4499 41.2851 44.7513C41.2851 46.2301 40.2203 47.1766 38.3569 47.3245Z" fill="white"/>
</g>
<defs>
<filter id="filter0_bd" x="5.74826" y="1.31255" width="61.9684" height="70.8709" filterUnits="userSpaceOnUse" color-interpolation-filters="sRGB">
<feFlood flood-opacity="0" result="BackgroundImageFix"/>
<feGaussianBlur in="BackgroundImage" stdDeviation="2.13843"/>
<feComposite in2="SourceAlpha" operator="in" result="effect1_backgroundBlur"/>
<feColorMatrix in="SourceAlpha" type="matrix" values="0 0 0 0 0 0 0 0 0 0 0 0 0 0 0 0 0 0 127 0"/>
<feOffset dy="0.855373"/>
<feGaussianBlur stdDeviation="1.06922"/>
<feColorMatrix type="matrix" values="0 0 0 0 0.521569 0 0 0 0 0.435294 0 0 0 0 0.380392 0 0 0 0.1 0"/>
<feBlend mode="normal" in2="effect1_backgroundBlur" result="effect2_dropShadow"/>
<feBlend mode="normal" in="SourceGraphic" in2="effect2_dropShadow" result="shape"/>
</filter>
<clipPath id="clip0">
<rect width="80" height="80" fill="white"/>
</clipPath>
</defs>
</svg>
