<svg width="80" height="80" viewBox="0 0 80 80" fill="none" xmlns="http://www.w3.org/2000/svg">
<g clip-path="url(#clip0)">
<path d="M55.813 24.0605C55.7685 23.2099 55.0409 22.5577 54.1906 22.6062L49.2128 22.8896C48.37 22.9376 47.7236 23.6565 47.765 24.4997L47.9408 28.0754C47.9767 28.8053 47.4915 29.4538 46.7952 29.6758C45.033 30.2377 43.3531 31.0287 41.8104 32.0462C41.1939 32.4528 40.3747 32.4236 39.8264 31.9289L37.0926 29.462C36.4611 28.8922 35.4869 28.9436 34.9189 29.5767L31.565 33.3145C30.9989 33.9454 31.0504 34.9154 31.68 35.4828L34.4798 38.0063C35.0185 38.4918 35.1388 39.2849 34.8118 39.9322C34.4286 40.6907 34.0875 41.4789 33.8021 42.3015C33.5241 43.1027 33.3094 43.9111 33.1449 44.7223C32.9989 45.4418 32.4018 45.9949 31.6687 46.0334L28.3028 46.21C27.4552 46.2544 26.8041 46.9775 26.8484 47.8251L27.1109 52.8498C27.1553 53.6997 27.8818 54.3517 28.7315 54.3043L32.0974 54.1164C32.8237 54.0759 33.473 54.5522 33.7036 55.242C34.2375 56.8396 34.9633 58.3623 35.8664 59.7799C36.2558 60.3911 36.2192 61.1919 35.7349 61.731L33.1652 64.5917C32.5983 65.2228 32.6499 66.1939 33.2805 66.7614L36.9902 70.0999C37.6216 70.6681 38.5943 70.6164 39.1619 69.9844L41.627 67.2397C42.1211 66.6895 42.934 66.5753 43.5906 66.9153C44.4234 67.3465 45.297 67.7208 46.2068 68.0364C47.0665 68.3347 47.9248 68.572 48.7817 68.7483C49.5046 68.897 50.0633 69.4962 50.1019 70.2333L50.287 73.7658C50.3316 74.6158 51.0584 75.2678 51.9082 75.22L56.8975 74.9396C57.7422 74.8921 58.3897 74.171 58.3463 73.3261L58.157 69.6408C58.1201 68.9216 58.5897 68.2791 59.2706 68.0446C60.7988 67.5182 62.2543 66.8111 63.6167 65.9406C64.2274 65.5503 65.0284 65.5869 65.5676 66.0712L68.1751 68.4137C68.8068 68.9813 69.7792 68.9289 70.3463 68.2968L73.7021 64.5569C74.2683 63.9259 74.2166 62.9555 73.5866 62.3882L71.0741 60.1256C70.5261 59.632 70.4118 58.8216 70.7504 58.1663C71.1847 57.3256 71.5628 56.4415 71.8846 55.514C72.1592 54.7224 72.3794 53.9193 72.5508 53.1163C72.7026 52.4049 73.296 51.8604 74.0223 51.8212L77.8014 51.6171C78.6474 51.5714 79.2969 50.8498 79.2536 50.0037L78.9971 44.9928C78.9537 44.1439 78.2294 43.4914 77.3806 43.5365L73.6017 43.7371C72.8719 43.7759 72.2217 43.2931 71.9948 42.5983C71.4387 40.8949 70.6606 39.2771 69.6835 37.7846C69.2821 37.1713 69.3135 36.3594 69.8035 35.8142L72.0885 33.2721C72.6551 32.6418 72.6046 31.6719 71.9757 31.1039L68.268 27.7551C67.6367 27.1849 66.6623 27.2359 66.094 27.869L63.7743 30.4529C63.2885 30.994 62.4927 31.1147 61.8438 30.7864C61.0906 30.4053 60.3057 30.0656 59.4799 29.7791C58.7636 29.5306 58.0303 29.3314 57.2957 29.1736C56.5847 29.021 56.0414 28.4271 56.0034 27.7008L55.813 24.0605ZM56.8253 37.4306C63.1922 39.6395 66.482 46.4903 64.2681 52.8715C62.049 59.2676 55.2283 62.5939 48.8614 60.3849C42.5094 58.1811 39.1995 51.3402 41.4186 44.944C43.6325 38.5628 50.4732 35.2268 56.8253 37.4306Z" fill="#AB8067"/>
<g filter="url(#filter0_bd)">
<path fill-rule="evenodd" clip-rule="evenodd" d="M22.9927 3.50426C23.8677 3.14371 24.8691 3.56341 25.2256 4.44011L27.0418 8.9066C27.3462 9.65524 28.1329 10.0817 28.9344 9.97828C29.9 9.85376 30.8836 9.78245 31.8671 9.78245C32.9946 9.78245 34.0936 9.86853 35.1707 10.0206C35.9709 10.1336 36.7624 9.71619 37.0754 8.97108L38.8599 4.72215C39.2259 3.85057 40.2303 3.44209 41.1008 3.81077L47.1029 6.35294C47.97 6.72021 48.3763 7.72005 48.0111 8.58806L46.2496 12.7749C45.9338 13.5256 46.196 14.39 46.8439 14.8837C48.6704 16.2755 50.3002 17.9155 51.6845 19.7613C52.1718 20.411 53.0307 20.6805 53.7828 20.374L58.4066 18.4896C59.2814 18.1331 60.2794 18.5543 60.6342 19.4297L63.0924 25.4948C63.4461 26.3673 63.027 27.3614 62.1556 27.7175L57.5347 29.6056C56.7864 29.9113 56.3611 30.6991 56.4654 31.5006C56.6021 32.551 56.6769 33.6239 56.6769 34.7061C56.6769 35.9673 56.5866 37.1982 56.4059 38.3989C56.2839 39.2094 56.6997 40.0186 57.4548 40.3371L61.5992 42.0853C62.4673 42.4514 62.8749 43.4513 62.5103 44.32L59.9743 50.3626C59.6091 51.2328 58.6074 51.6419 57.7375 51.2762L53.453 49.475C52.7105 49.1629 51.8558 49.4157 51.3604 50.0508C50.0752 51.6984 48.5975 53.1788 46.9468 54.4592C46.3144 54.9496 46.0559 55.7957 46.3567 56.5372L48.1881 61.0532C48.5414 61.9244 48.1243 62.9173 47.2548 63.2748L41.2253 65.754C40.3505 66.1136 39.35 65.6939 38.9936 64.8178L37.226 60.472C36.917 59.7122 36.1123 59.286 35.2998 59.3984C34.1844 59.5527 33.0401 59.6298 31.8671 59.6298C30.6295 59.6298 29.4117 59.5396 28.2211 59.3592C27.4088 59.2361 26.597 59.6528 26.2787 60.4103L24.3888 64.9076C24.0231 65.7779 23.0208 66.1864 22.1509 65.8199L16.1503 63.2911C15.2816 62.925 14.8738 61.9244 15.2391 61.0553L17.2022 56.385C17.5143 55.6426 17.2615 54.7881 16.6272 54.292C14.9189 52.9559 13.3897 51.4062 12.0731 49.6765C11.5836 49.0334 10.7279 48.7704 9.9802 49.0775L5.83242 50.781C4.95764 51.1403 3.95743 50.7204 3.60127 49.8444L1.12973 43.7651C0.774514 42.8914 1.19471 41.8952 2.06835 41.5398L6.22209 39.8499C6.97778 39.5425 7.40401 38.7444 7.29035 37.9365C7.14149 36.8785 7.05732 35.8017 7.05732 34.7061C7.05732 33.5834 7.14357 32.48 7.29585 31.3958C7.40794 30.5978 6.99197 29.8089 6.24964 29.4954L1.66893 27.561C0.801288 27.1946 0.393982 26.195 0.758456 25.3266L3.29326 19.2868C3.65903 18.4152 4.66308 18.0064 5.53359 18.3747L10.0186 20.2718C10.7744 20.5915 11.6456 20.3242 12.1405 19.6696C13.5737 17.7741 15.2822 16.1048 17.1942 14.6906C17.8472 14.2077 18.1199 13.3497 17.8163 12.5964L16.0447 8.20001C15.6941 7.32987 16.1109 6.33979 16.9782 5.9824L22.9927 3.50426Z" fill="#DFC3B5" fill-opacity="0.4"/>
</g>
</g>
<defs>
<filter id="filter0_bd" x="-4.35431" y="-1.60425" width="72.5515" height="72.5379" filterUnits="userSpaceOnUse" color-interpolation-filters="sRGB">
<feFlood flood-opacity="0" result="BackgroundImageFix"/>
<feGaussianBlur in="BackgroundImage" stdDeviation="2.48963"/>
<feComposite in2="SourceAlpha" operator="in" result="effect1_backgroundBlur"/>
<feColorMatrix in="SourceAlpha" type="matrix" values="0 0 0 0 0 0 0 0 0 0 0 0 0 0 0 0 0 0 127 0"/>
<feOffset dy="0.995851"/>
<feGaussianBlur stdDeviation="1.24481"/>
<feColorMatrix type="matrix" values="0 0 0 0 0.521569 0 0 0 0 0.435294 0 0 0 0 0.380392 0 0 0 0.1 0"/>
<feBlend mode="normal" in2="effect1_backgroundBlur" result="effect2_dropShadow"/>
<feBlend mode="normal" in="SourceGraphic" in2="effect2_dropShadow" result="shape"/>
</filter>
<clipPath id="clip0">
<rect width="80" height="80" fill="white"/>
</clipPath>
</defs>
</svg>
