<svg width="45" height="44" viewBox="0 0 45 44" fill="none" xmlns="http://www.w3.org/2000/svg">
<mask id="mask0" mask-type="alpha" maskUnits="userSpaceOnUse" x="8" y="8" width="28" height="28">
<path fill-rule="evenodd" clip-rule="evenodd" d="M8.99271 8.99805H35.0548V35.057H8.99271V8.99805Z" fill="white"/>
</mask>
<g mask="url(#mask0)">
<path fill-rule="evenodd" clip-rule="evenodd" d="M22.0238 8.99805C18.4847 8.99805 18.041 9.01305 16.6511 9.07646C15.2641 9.13973 14.3168 9.36003 13.4879 9.68219C12.631 10.0152 11.9043 10.4607 11.1798 11.1852C10.4554 11.9096 10.0098 12.6364 9.67684 13.4933C9.35469 14.3221 9.13439 15.2694 9.07112 16.6564C9.00771 18.0463 8.99271 18.4901 8.99271 22.0291C8.99271 25.5681 9.00771 26.0119 9.07112 27.4018C9.13439 28.7888 9.35469 29.736 9.67684 30.5649C10.0098 31.4218 10.4554 32.1485 11.1798 32.873C11.9043 33.5974 12.631 34.043 13.4879 34.376C14.3168 34.6981 15.2641 34.9184 16.6511 34.9817C18.041 35.0451 18.4847 35.0601 22.0238 35.0601C25.5628 35.0601 26.0065 35.0451 27.3964 34.9817C28.7834 34.9184 29.7307 34.6981 30.5596 34.376C31.4165 34.043 32.1432 33.5974 32.8677 32.873C33.5921 32.1485 34.0377 31.4218 34.3707 30.5649C34.6928 29.736 34.9131 28.7888 34.9764 27.4018C35.0398 26.0119 35.0548 25.5681 35.0548 22.0291C35.0548 18.4901 35.0398 18.0463 34.9764 16.6564C34.9131 15.2694 34.6928 14.3221 34.3707 13.4933C34.0377 12.6364 33.5921 11.9096 32.8677 11.1852C32.1432 10.4607 31.4165 10.0152 30.5596 9.68219C29.7307 9.36003 28.7834 9.13973 27.3964 9.07646C26.0065 9.01305 25.5628 8.99805 22.0238 8.99805ZM22.0238 11.346C25.5032 11.346 25.9153 11.3593 27.2894 11.422C28.5599 11.4799 29.2499 11.6922 29.7091 11.8706C30.3173 12.107 30.7514 12.3894 31.2074 12.8454C31.6634 13.3014 31.9458 13.7355 32.1822 14.3437C32.3606 14.8029 32.5729 15.4929 32.6309 16.7634C32.6936 18.1375 32.7069 18.5497 32.7069 22.0291C32.7069 25.5085 32.6936 25.9207 32.6309 27.2947C32.5729 28.5652 32.3606 29.2552 32.1822 29.7144C31.9458 30.3227 31.6634 30.7568 31.2074 31.2127C30.7514 31.6687 30.3173 31.9511 29.7091 32.1875C29.2499 32.366 28.5599 32.5783 27.2894 32.6362C25.9155 32.6989 25.5034 32.7122 22.0238 32.7122C18.5441 32.7122 18.132 32.6989 16.7581 32.6362C15.4876 32.5783 14.7976 32.366 14.3384 32.1875C13.7302 31.9511 13.2961 31.6687 12.8401 31.2127C12.3841 30.7568 12.1017 30.3227 11.8653 29.7144C11.6868 29.2552 11.4746 28.5652 11.4166 27.2947C11.3539 25.9207 11.3406 25.5085 11.3406 22.0291C11.3406 18.5497 11.3539 18.1375 11.4166 16.7634C11.4746 15.4929 11.6868 14.8029 11.8653 14.3437C12.1017 13.7355 12.3841 13.3014 12.8401 12.8454C13.2961 12.3894 13.7302 12.107 14.3384 11.8706C14.7976 11.6922 15.4876 11.4799 16.7581 11.422C18.1322 11.3593 18.5443 11.346 22.0238 11.346Z" fill="#120D08"/>
</g>
<path fill-rule="evenodd" clip-rule="evenodd" d="M22.0278 26.4017C19.6106 26.4017 17.6512 24.4422 17.6512 22.0251C17.6512 19.6079 19.6106 17.6485 22.0278 17.6485C24.4449 17.6485 26.4044 19.6079 26.4044 22.0251C26.4044 24.4422 24.4449 26.4017 22.0278 26.4017ZM22.0278 15.2827C18.3041 15.2827 15.2855 18.3013 15.2855 22.0251C15.2855 25.7487 18.3041 28.7673 22.0278 28.7673C25.7515 28.7673 28.7701 25.7487 28.7701 22.0251C28.7701 18.3013 25.7515 15.2827 22.0278 15.2827Z" fill="#120D08"/>
<path fill-rule="evenodd" clip-rule="evenodd" d="M31.4671 15.2828C31.4671 16.2758 30.6621 17.0808 29.6691 17.0808C28.6761 17.0808 27.8712 16.2758 27.8712 15.2828C27.8712 14.2899 28.6761 13.4849 29.6691 13.4849C30.6621 13.4849 31.4671 14.2899 31.4671 15.2828Z" fill="#120D08"/>
</svg>
