<svg width="213" height="40" viewBox="0 0 213 40" fill="none" xmlns="http://www.w3.org/2000/svg">
<path d="M30.356 19.7705L34.9483 15.1782L32.0839 12.3138L27.2114 15.2716L30.356 19.7705Z" fill="#CBA75C"/>
<path d="M30.3559 19.7704L26.363 15.7774L19.7703 19.7704L25.0631 25.0632L29.6554 29.6555L34.9483 24.3627L30.3559 19.7704Z" fill="#99703F"/>
<path d="M27.2114 15.2715L32.0839 12.3137L29.6555 9.88525L26.005 13.5358L27.2114 15.2715Z" fill="#B1893F"/>
<path d="M25.0631 14.4775L19.7703 19.7704L26.363 15.7774L25.0631 14.4775Z" fill="#845A2D"/>
<path d="M26.363 15.7773L30.356 19.7702L27.2114 15.2713L26.363 15.7773Z" fill="#AF8133"/>
<path d="M27.2114 15.2714L26.0049 13.5356L25.0631 14.4775L26.363 15.7773L27.2114 15.2714Z" fill="#87672B"/>
<path d="M19.7703 30.3559L24.3626 34.9482L27.227 32.0839L24.2692 27.2114L19.7703 30.3559Z" fill="#6B4C2E"/>
<path d="M19.7703 19.77L14.4775 25.0629L9.88517 29.6552L15.178 34.948L19.7703 30.3557L23.7633 26.3627L19.7703 19.77Z" fill="#CBA75C"/>
<path d="M24.2692 27.2113L27.227 32.0839L29.6554 29.6554L26.0049 26.0049L24.2692 27.2113Z" fill="#573B23"/>
<path d="M25.0632 25.0629L19.7703 19.77L23.7633 26.3627L25.0632 25.0629Z" fill="#B08A3E"/>
<path d="M23.7633 26.3633L19.7703 30.3563L24.2692 27.2117L23.7633 26.3633Z" fill="#53381E"/>
<path d="M24.2692 27.2113L26.0049 26.0048L25.0631 25.063L23.7633 26.3628L24.2692 27.2113Z" fill="#462C14"/>
<path d="M9.18463 19.77L4.59232 24.3623L7.45668 27.2267L12.3292 24.2689L9.18463 19.77Z" fill="#F8D885"/>
<path d="M14.4774 14.4776L9.88513 9.88525L4.59229 15.1781L9.18461 19.7704L13.1776 23.7634L19.7703 19.7704L14.4774 14.4776Z" fill="#6B4C2E"/>
<path d="M12.3292 24.2694L7.45668 27.2272L9.88516 29.6556L13.5357 26.0051L12.3292 24.2694Z" fill="#E1B759"/>
<path d="M14.4775 25.0629L19.7703 19.7701L13.1776 23.7631L14.4775 25.0629Z" fill="#573B23"/>
<path d="M13.1776 23.763L9.18463 19.77L12.3292 24.2689L13.1776 23.763Z" fill="#CB9B3D"/>
<path d="M12.3292 24.269L13.5357 26.0047L14.4775 25.0629L13.1776 23.763L12.3292 24.269Z" fill="#AE8234"/>
<path d="M19.7703 9.1846L15.178 4.59229L12.3136 7.45664L15.2714 12.3292L19.7703 9.1846Z" fill="#99703F"/>
<path d="M24.3626 4.59229L19.7703 9.1846L15.7773 13.1776L19.7703 19.7703L25.0631 14.4774L29.6554 9.88512L24.3626 4.59229Z" fill="#F8D885"/>
<path d="M15.2714 12.3291L12.3137 7.45654L9.88518 9.88502L13.5357 13.5355L15.2714 12.3291Z" fill="#8B6032"/>
<path d="M14.4775 14.4776L19.7703 19.7704L15.7773 13.1777L14.4775 14.4776Z" fill="#E1B759"/>
<path d="M15.7773 13.1775L19.7703 9.1845L15.2714 12.3291L15.7773 13.1775Z" fill="#845A2D"/>
<path d="M15.2714 12.3291L13.5357 13.5356L14.4775 14.4774L15.7774 13.1775L15.2714 12.3291Z" fill="#6E4E2A"/>
<path d="M66.7849 11.1392H69.8457L76.6195 28.9519H73.057L71.4011 24.5113H65.1792L63.5485 28.9519H59.9859L66.7849 11.1392ZM70.7739 22.0777L68.3153 15.078L65.7562 22.0777H70.7739Z" fill="#120D08"/>
<path d="M79.903 28.9519V11.1392H87.4546C88.2741 11.1392 89.0268 11.3148 89.7126 11.666C90.415 12.0005 91.0171 12.4521 91.5189 13.0208C92.0207 13.5727 92.4137 14.2083 92.6981 14.9275C92.9824 15.63 93.1246 16.3408 93.1246 17.06C93.1246 17.8127 92.9908 18.5486 92.7232 19.2678C92.4556 19.9703 92.0792 20.5975 91.5942 21.1494C91.1091 21.7014 90.5237 22.1446 89.838 22.4791C89.1522 22.8136 88.3996 22.9809 87.58 22.9809H83.3652V28.9519H79.903ZM83.3652 19.9452H87.3793C88.0149 19.9452 88.5418 19.686 88.9599 19.1675C89.3948 18.649 89.6122 17.9465 89.6122 17.06C89.6122 16.6084 89.5453 16.207 89.4115 15.8558C89.2777 15.4878 89.1021 15.1784 88.8846 14.9275C88.6672 14.6766 88.408 14.4926 88.1069 14.3756C87.8226 14.2418 87.5299 14.1749 87.2288 14.1749H83.3652V19.9452Z" fill="#120D08"/>
<path d="M100.299 18.465H101.704L107.123 11.1392H111.037L104.64 19.7445L111.614 28.9519H107.751L102.03 21.5759H100.299V28.9519H96.8622V11.1392H100.299V18.465Z" fill="#120D08"/>
<path d="M126.876 25.9162V28.9519H114.507V11.1392H126.65V14.1749H117.97V18.465H125.471V21.2749H117.97V25.9162H126.876Z" fill="#120D08"/>
<path d="M144.15 14.1749H138.455V28.9519H135.018V14.1749H129.322V11.1392H144.15V14.1749Z" fill="#120D08"/>
<path d="M178.387 14.1749H172.692V28.9519H169.254V14.1749H163.559V11.1392H178.387V14.1749Z" fill="#120D08"/>
<path d="M194.296 25.9162V28.9519H181.928V11.1392H194.07V14.1749H185.39V18.465H192.891V21.2749H185.39V25.9162H194.296Z" fill="#120D08"/>
<path d="M198.323 11.1392H213V28.9519H209.563V14.1749H201.76V28.9519H198.323V11.1392Z" fill="#120D08"/>
<path d="M41.9665 11.1394H56.6432V28.9522H53.2061V14.1751H45.4036V28.9522H41.9665V11.1394Z" fill="#120D08"/>
<path d="M145.704 19.9204C145.704 18.8332 145.896 17.7628 146.281 16.709C146.682 15.6386 147.259 14.6852 148.012 13.849C148.764 13.0127 149.684 12.3353 150.771 11.8168C151.859 11.2983 153.096 11.0391 154.485 11.0391C156.124 11.0391 157.537 11.3987 158.724 12.1179C159.929 12.8371 160.824 13.7737 161.409 14.9278L158.75 16.7592C158.515 16.2575 158.231 15.8393 157.897 15.5048C157.562 15.1536 157.202 14.8776 156.818 14.6769C156.433 14.4762 156.032 14.334 155.614 14.2504C155.195 14.15 154.786 14.0999 154.384 14.0999C153.514 14.0999 152.753 14.2755 152.101 14.6267C151.466 14.9779 150.93 15.4379 150.495 16.0066C150.077 16.5585 149.76 17.1941 149.542 17.9133C149.325 18.6158 149.216 19.3182 149.216 20.0207C149.216 20.8068 149.341 21.5678 149.592 22.3038C149.843 23.023 150.194 23.6585 150.646 24.2105C151.114 24.7624 151.666 25.2057 152.302 25.5402C152.954 25.8747 153.665 26.0419 154.434 26.0419C154.836 26.0419 155.254 25.9918 155.689 25.8914C156.124 25.7911 156.533 25.6322 156.918 25.4147C157.32 25.1973 157.688 24.9213 158.022 24.5868C158.357 24.2356 158.624 23.8174 158.825 23.3324L161.66 24.9631C161.376 25.6322 160.966 26.2259 160.431 26.7444C159.912 27.2462 159.318 27.6727 158.649 28.0239C157.997 28.3752 157.294 28.6428 156.542 28.8268C155.789 29.0107 155.053 29.1027 154.334 29.1027C153.063 29.1027 151.9 28.8351 150.847 28.2999C149.793 27.7647 148.881 27.0706 148.112 26.2176C147.359 25.3478 146.766 24.3694 146.331 23.2822C145.913 22.1783 145.704 21.0577 145.704 19.9204Z" fill="#120D08"/>
</svg>
