<svg width="80" height="80" viewBox="0 0 80 80" fill="none" xmlns="http://www.w3.org/2000/svg">
<path d="M75 60.2184C75 56.7808 69.3621 53.994 62.4074 53.994C55.4527 53.994 49.8148 56.7808 49.8148 60.2184V65.109C49.8148 68.5466 55.4527 71.3334 62.4074 71.3334C69.3621 71.3334 75 68.5466 75 65.109V60.2184Z" fill="#AB8067"/>
<path d="M62.4074 66.4428C69.3621 66.4428 75 63.656 75 60.2184C75 56.7808 69.3621 53.994 62.4074 53.994C55.4527 53.994 49.8148 56.7808 49.8148 60.2184C49.8148 63.656 55.4527 66.4428 62.4074 66.4428Z" fill="#ECDFD9"/>
<path d="M75 52.3725C75 48.9349 69.3621 46.1481 62.4074 46.1481C55.4527 46.1481 49.8148 48.9349 49.8148 52.3725V57.2631C49.8148 60.7007 55.4527 63.4875 62.4074 63.4875C69.3621 63.4875 75 60.7007 75 57.2631V52.3725Z" fill="#AB8067"/>
<path d="M62.4074 58.5969C69.3621 58.5969 75 55.8101 75 52.3725C75 48.9349 69.3621 46.1481 62.4074 46.1481C55.4527 46.1481 49.8148 48.9349 49.8148 52.3725C49.8148 55.8101 55.4527 58.5969 62.4074 58.5969Z" fill="#ECDFD9"/>
<path d="M75 44.2244C75 40.7868 69.3621 38 62.4074 38C55.4527 38 49.8148 40.7868 49.8148 44.2244V49.115C49.8148 52.5525 55.4527 55.3393 62.4074 55.3393C69.3621 55.3393 75 52.5525 75 49.115V44.2244Z" fill="#AB8067"/>
<path d="M62.4074 50.4488C69.3621 50.4488 75 47.662 75 44.2244C75 40.7867 69.3621 38 62.4074 38C55.4527 38 49.8148 40.7867 49.8148 44.2244C49.8148 47.662 55.4527 50.4488 62.4074 50.4488Z" fill="#ECDFD9"/>
<path d="M60.1852 66.8851C60.1852 63.4475 54.5473 60.6607 47.5926 60.6607C40.6379 60.6607 35 63.4475 35 66.8851V71.7757C35 75.2133 40.6379 78 47.5926 78C54.5473 78 60.1852 75.2133 60.1852 71.7757V66.8851Z" fill="#AB8067"/>
<path d="M47.5926 73.1095C54.5473 73.1095 60.1852 70.3227 60.1852 66.8851C60.1852 63.4475 54.5473 60.6607 47.5926 60.6607C40.6379 60.6607 35 63.4475 35 66.8851C35 70.3227 40.6379 73.1095 47.5926 73.1095Z" fill="#ECDFD9"/>
<path d="M60.1852 59.0392C60.1852 55.6016 54.5473 52.8148 47.5926 52.8148C40.6379 52.8148 35 55.6016 35 59.0392V63.9298C35 67.3674 40.6379 70.1542 47.5926 70.1542C54.5473 70.1542 60.1852 67.3674 60.1852 63.9298V59.0392Z" fill="#AB8067"/>
<path d="M47.5926 65.2636C54.5473 65.2636 60.1852 62.4768 60.1852 59.0392C60.1852 55.6016 54.5473 52.8148 47.5926 52.8148C40.6379 52.8148 35 55.6016 35 59.0392C35 62.4768 40.6379 65.2636 47.5926 65.2636Z" fill="#ECDFD9"/>
<g filter="url(#filter0_bd)">
<circle cx="35.5" cy="33.5" r="30.5" fill="#DFC3B5" fill-opacity="0.4"/>
</g>
<path d="M36.6939 16.3811V38.359H23.8734" stroke="white" stroke-width="5.38235" stroke-linecap="round" stroke-linejoin="round"/>
<defs>
<filter id="filter0_bd" x="-0.955577" y="-2.95558" width="72.9112" height="72.9112" filterUnits="userSpaceOnUse" color-interpolation-filters="sRGB">
<feFlood flood-opacity="0" result="BackgroundImageFix"/>
<feGaussianBlur in="BackgroundImage" stdDeviation="2.97779"/>
<feComposite in2="SourceAlpha" operator="in" result="effect1_backgroundBlur"/>
<feColorMatrix in="SourceAlpha" type="matrix" values="0 0 0 0 0 0 0 0 0 0 0 0 0 0 0 0 0 0 127 0"/>
<feOffset dy="1.19112"/>
<feGaussianBlur stdDeviation="1.48889"/>
<feColorMatrix type="matrix" values="0 0 0 0 0.521569 0 0 0 0 0.435294 0 0 0 0 0.380392 0 0 0 0.1 0"/>
<feBlend mode="normal" in2="effect1_backgroundBlur" result="effect2_dropShadow"/>
<feBlend mode="normal" in="SourceGraphic" in2="effect2_dropShadow" result="shape"/>
</filter>
</defs>
</svg>
