<svg width="80" height="80" viewBox="0 0 80 80" fill="none" xmlns="http://www.w3.org/2000/svg">
<g clip-path="url(#clip0)">
<path fill-rule="evenodd" clip-rule="evenodd" d="M11.3371 14.6125C10.8749 14.0333 10.9217 13.1993 11.4457 12.6753L13.0366 11.0844C13.5606 10.5604 14.3945 10.5137 14.9738 10.9758L21.9678 16.556C22.4658 16.9533 22.8197 17.503 22.9753 18.1208L23.5637 20.4576L40.673 37.0982C42.4329 34.9104 45.0296 32.7213 46.9494 34.4278C48.5152 35.8196 48.6254 36.9908 48.7338 38.1429C48.8392 39.2628 48.9429 40.3645 50.3805 41.633C52.1722 43.2139 53.5107 43.3056 54.5948 43.3799C55.2753 43.4265 55.8556 43.4663 56.3849 43.8632C57.302 44.5511 65.9437 53.2667 72.2315 59.6517C74.0992 61.5483 74.0826 64.5937 72.2004 66.4759L67.1603 71.5159C65.2781 73.3981 62.2327 73.4147 60.3362 71.547C53.9511 65.2592 45.2355 56.6176 44.5477 55.7004C44.1507 55.1712 44.111 54.5908 44.0643 53.9103C43.9901 52.8262 43.8984 51.4877 42.3175 49.696C41.049 48.2584 39.9472 48.1548 38.8273 48.0494C37.6753 47.941 36.504 47.8308 35.1122 46.265C33.4978 44.4488 35.3699 42.0268 37.429 40.2806L20.8188 23.2024L18.4821 22.614C17.8643 22.4585 17.3146 22.1045 16.9172 21.6065L11.3371 14.6125Z" fill="#AB8067"/>
<g filter="url(#filter0_bd)">
<path fill-rule="evenodd" clip-rule="evenodd" d="M28.4074 71.063C32.0289 67.4415 33.3072 62.3643 32.2423 57.715C32.0237 56.7605 32.2384 55.7362 32.9308 55.0438L55.0437 32.931C55.7361 32.2385 56.7604 32.0238 57.7149 32.2424C62.3641 33.3073 67.4414 32.029 71.0629 28.4075C74.0624 25.408 75.4544 21.4098 75.2391 17.4833C75.1363 15.6091 72.9152 15.0595 71.5879 16.3867L71.5167 16.458C69.8459 18.1287 67.137 18.1287 65.4662 16.458L62.7435 13.7353C61.0728 12.0645 61.0728 9.35564 62.7435 7.68486L62.8148 7.61359C64.1421 6.28636 63.5924 4.06526 61.7182 3.96245C57.7917 3.74707 53.7935 5.13913 50.794 8.13864C47.1725 11.7601 45.8942 16.8374 46.9591 21.4866C47.1777 22.4412 46.963 23.4654 46.2706 24.1578L24.1577 46.2707C23.4653 46.9631 22.441 47.1779 21.4865 46.9592C16.8373 45.8943 11.76 47.1726 8.13852 50.7941C5.05586 53.8768 3.671 58.0142 3.98394 62.0447C4.11752 63.765 6.16209 64.2663 7.38222 63.0462C9.05299 61.3754 11.7619 61.3754 13.4326 63.0462L16.1553 65.7689C17.8261 67.4397 17.8261 70.1485 16.1553 71.8193C14.9352 73.0394 15.4365 75.084 17.1569 75.2176C21.1873 75.5305 25.3248 74.1457 28.4074 71.063Z" fill="#DFC3B5" fill-opacity="0.4"/>
</g>
</g>
<defs>
<filter id="filter0_bd" x="1.3927" y="1.39283" width="76.416" height="76.416" filterUnits="userSpaceOnUse" color-interpolation-filters="sRGB">
<feFlood flood-opacity="0" result="BackgroundImageFix"/>
<feGaussianBlur in="BackgroundImage" stdDeviation="1.27398"/>
<feComposite in2="SourceAlpha" operator="in" result="effect1_backgroundBlur"/>
<feColorMatrix in="SourceAlpha" type="matrix" values="0 0 0 0 0 0 0 0 0 0 0 0 0 0 0 0 0 0 127 0"/>
<feOffset dy="0.509594"/>
<feGaussianBlur stdDeviation="0.636992"/>
<feColorMatrix type="matrix" values="0 0 0 0 0.521569 0 0 0 0 0.435294 0 0 0 0 0.380392 0 0 0 0.1 0"/>
<feBlend mode="normal" in2="effect1_backgroundBlur" result="effect2_dropShadow"/>
<feBlend mode="normal" in="SourceGraphic" in2="effect2_dropShadow" result="shape"/>
</filter>
<clipPath id="clip0">
<rect width="80" height="80" fill="white"/>
</clipPath>
</defs>
</svg>
