<svg width="80" height="80" viewBox="0 0 80 80" fill="none" xmlns="http://www.w3.org/2000/svg">
<path d="M44.1395 50.3949C44.1395 59.2489 34.9301 60.5969 23.5697 60.5969C12.2094 60.5969 2.99995 59.2489 2.99995 50.3949C2.99995 41.5409 12.2094 32.6976 23.5697 32.6976C34.9301 32.6976 44.1395 41.5409 44.1395 50.3949Z" fill="#AB8067"/>
<ellipse cx="23.5698" cy="19.6938" rx="10.1667" ry="9.6938" fill="#AB8067"/>
<g filter="url(#filter0_bd)">
<path d="M76.7674 59.4148C76.7674 69.4694 66.1819 71 53.124 71C40.0661 71 29.4806 69.4694 29.4806 59.4148C29.4806 49.3602 40.0661 39.3179 53.124 39.3179C66.1819 39.3179 76.7674 49.3602 76.7674 59.4148Z" fill="#DFC3B5" fill-opacity="0.4"/>
</g>
<g filter="url(#filter1_bd)">
<circle cx="53.1241" cy="24.186" r="11.3488" fill="#DFC3B5" fill-opacity="0.4"/>
</g>
<defs>
<filter id="filter0_bd" x="26.8018" y="36.639" width="52.6445" height="37.0398" filterUnits="userSpaceOnUse" color-interpolation-filters="sRGB">
<feFlood flood-opacity="0" result="BackgroundImageFix"/>
<feGaussianBlur in="BackgroundImage" stdDeviation="1.33941"/>
<feComposite in2="SourceAlpha" operator="in" result="effect1_backgroundBlur"/>
<feColorMatrix in="SourceAlpha" type="matrix" values="0 0 0 0 0 0 0 0 0 0 0 0 0 0 0 0 0 0 127 0"/>
<feOffset dy="0.535766"/>
<feGaussianBlur stdDeviation="0.669707"/>
<feColorMatrix type="matrix" values="0 0 0 0 0.521569 0 0 0 0 0.435294 0 0 0 0 0.380392 0 0 0 0.1 0"/>
<feBlend mode="normal" in2="effect1_backgroundBlur" result="effect2_dropShadow"/>
<feBlend mode="normal" in="SourceGraphic" in2="effect2_dropShadow" result="shape"/>
</filter>
<filter id="filter1_bd" x="39.0964" y="10.1583" width="28.0553" height="28.0553" filterUnits="userSpaceOnUse" color-interpolation-filters="sRGB">
<feFlood flood-opacity="0" result="BackgroundImageFix"/>
<feGaussianBlur in="BackgroundImage" stdDeviation="1.33941"/>
<feComposite in2="SourceAlpha" operator="in" result="effect1_backgroundBlur"/>
<feColorMatrix in="SourceAlpha" type="matrix" values="0 0 0 0 0 0 0 0 0 0 0 0 0 0 0 0 0 0 127 0"/>
<feOffset dy="0.535766"/>
<feGaussianBlur stdDeviation="0.669707"/>
<feColorMatrix type="matrix" values="0 0 0 0 0.521569 0 0 0 0 0.435294 0 0 0 0 0.380392 0 0 0 0.1 0"/>
<feBlend mode="normal" in2="effect1_backgroundBlur" result="effect2_dropShadow"/>
<feBlend mode="normal" in="SourceGraphic" in2="effect2_dropShadow" result="shape"/>
</filter>
</defs>
</svg>
