<svg width="45" height="44" viewBox="0 0 45 44" fill="none" xmlns="http://www.w3.org/2000/svg">
<path fill-rule="evenodd" clip-rule="evenodd" d="M20.3223 31.0729H21.9875C21.9875 31.0729 22.487 31.0141 22.7417 30.7399C22.9768 30.4852 22.967 30.0052 22.967 30.0052C22.967 30.0052 22.9376 27.7719 23.9661 27.4487C24.9848 27.1254 26.2974 29.6036 27.6883 30.5538C28.7364 31.2786 29.5396 31.1219 29.5396 31.1219L33.252 31.0729C33.252 31.0729 35.1914 30.9554 34.2707 29.4273C34.1923 29.3 33.7319 28.3009 31.5084 26.2341C29.1771 24.0693 29.4906 24.422 32.3018 20.6802C34.0062 18.3979 34.6919 17.0168 34.4764 16.4193C34.2707 15.8511 33.0169 15.9981 33.0169 15.9981L28.8343 16.0275C28.8343 16.0275 28.5209 15.9883 28.2956 16.1254C28.0703 16.2625 27.9234 16.576 27.9234 16.576C27.9234 16.576 27.2573 18.3391 26.3757 19.8378C24.5146 23.0017 23.7702 23.1682 23.4665 22.9723C22.7613 22.5119 22.9376 21.1308 22.9376 20.1512C22.9376 17.0853 23.398 15.812 22.0364 15.4789C21.5859 15.3712 21.243 15.2928 20.0872 15.283C18.5983 15.2634 17.3347 15.283 16.6197 15.6357C16.1397 15.8707 15.7773 16.3899 16.0026 16.4193C16.2769 16.4585 16.9038 16.5858 17.2368 17.0364C17.6678 17.6241 17.6482 18.9268 17.6482 18.9268C17.6482 18.9268 17.8931 22.5315 17.0703 22.9821C16.5021 23.2857 15.7283 22.6588 14.0729 19.7888C13.2208 18.3195 12.5841 16.6935 12.5841 16.6935C12.5841 16.6935 12.4567 16.3899 12.2412 16.2234C11.9768 16.0275 11.5947 15.9687 11.5947 15.9687L7.62769 15.9981C7.62769 15.9981 7.03018 16.0177 6.81468 16.2723C6.61878 16.5074 6.79509 16.9776 6.79509 16.9776C6.79509 16.9776 9.90997 24.2554 13.4265 27.9286C16.6589 31.2982 20.3223 31.0729 20.3223 31.0729Z" fill="#120D08"/>
</svg>
