<svg width="29" height="17" viewBox="0 0 29 17" fill="none" xmlns="http://www.w3.org/2000/svg">
<path fill-rule="evenodd" clip-rule="evenodd" d="M14.3223 16.0729H15.9875C15.9875 16.0729 16.487 16.0141 16.7417 15.7399C16.9768 15.4852 16.967 15.0052 16.967 15.0052C16.967 15.0052 16.9376 12.7719 17.9661 12.4487C18.9848 12.1254 20.2974 14.6036 21.6883 15.5538C22.7364 16.2786 23.5396 16.1219 23.5396 16.1219L27.252 16.0729C27.252 16.0729 29.1914 15.9554 28.2707 14.4273C28.1923 14.3 27.7319 13.3009 25.5084 11.2341C23.1771 9.06933 23.4906 9.42196 26.3018 5.68019C28.0062 3.3979 28.6919 2.01678 28.4764 1.41927C28.2707 0.851147 27.0169 0.998075 27.0169 0.998075L22.8343 1.02746C22.8343 1.02746 22.5209 0.98828 22.2956 1.12541C22.0703 1.26255 21.9234 1.57599 21.9234 1.57599C21.9234 1.57599 21.2573 3.33913 20.3757 4.8378C18.5146 8.00165 17.7702 8.16817 17.4665 7.97227C16.7613 7.51189 16.9376 6.13077 16.9376 5.15124C16.9376 2.08534 17.398 0.811966 16.0364 0.478929C15.5859 0.371182 15.243 0.29282 14.0872 0.283025C12.5983 0.263434 11.3347 0.283025 10.6197 0.635652C10.1397 0.870737 9.7773 1.38988 10.0026 1.41927C10.2769 1.45845 10.9038 1.58579 11.2368 2.03637C11.6678 2.62408 11.6482 3.92684 11.6482 3.92684C11.6482 3.92684 11.8931 7.53148 11.0703 7.98206C10.5021 8.28571 9.72832 7.65882 8.07293 4.78882C7.22075 3.31954 6.58406 1.69354 6.58406 1.69354C6.58406 1.69354 6.45672 1.38988 6.24123 1.22336C5.97676 1.02746 5.59475 0.968689 5.59475 0.968689L1.62769 0.998075C1.62769 0.998075 1.03018 1.01767 0.814684 1.27234C0.61878 1.50743 0.795093 1.9776 0.795093 1.9776C0.795093 1.9776 3.90997 9.25544 7.42645 12.9286C10.6589 16.2982 14.3223 16.0729 14.3223 16.0729Z" fill="#120D08"/>
</svg>
